{
  "accessors": [
    {
      "bufferView": 2,
      "componentType": 5126,
      "count": 1576,
      "max": [
        -19.7540340423584,
        2.2825450897216797,
        -10.223126411437988
      ],
      "min": [
        -19.9063777923584,
        2.2092950344085693,
        -10.376917839050293
      ],
      "type": "VEC3"
    },
    {
      "bufferView": 2,
      "byteOffset": 18912,
      "componentType": 5126,
      "count": 1576,
      "max": [
        0.9989566206932068,
        0.99711012840271,
        0.9978011250495911
      ],
      "min": [
        -0.9990571141242981,
        -0.08075504004955292,
        -0.9976245164871216
      ],
      "type": "VEC3"
    },
    {
      "bufferView": 3,
      "componentType": 5126,
      "count": 1576,
      "max": [
        0.501960813999176,
        0.0,
        0.0,
        1.0
      ],
      "min": [
        0.501960813999176,
        0.0,
        0.0,
        1.0
      ],
      "type": "VEC4"
    },
    {
      "bufferView": 1,
      "componentType": 5126,
      "count": 1576,
      "max": [
        0.0,
        0.0
      ],
      "min": [
        0.0,
        0.0
      ],
      "type": "VEC2"
    },
    {
      "bufferView": 0,
      "componentType": 5125,
      "count": 9087,
      "type": "SCALAR"
    },
    {
      "bufferView": 2,
      "byteOffset": 37824,
      "componentType": 5126,
      "count": 767,
      "max": [
        -19.893587112426758,
        2.0586159229278564,
        -12.97339153289795
      ],
      "min": [
        -20.117868423461914,
        1.9560879468917847,
        -13.612198829650879
      ],
      "type": "VEC3"
    },
    {
      "bufferView": 2,
      "byteOffset": 47028,
      "componentType": 5126,
      "count": 767,
      "max": [
        0.9990292191505432,
        0.9983675479888916,
        0.902425229549408
      ],
      "min": [
        -0.999043881893158,
        -0.07889999449253082,
        -0.8811548948287964
      ],
      "type": "VEC3"
    },
    {
      "bufferView": 3,
      "byteOffset": 25216,
      "componentType": 5126,
      "count": 767,
      "max": [
        0.501960813999176,
        0.0,
        0.0,
        1.0
      ],
      "min": [
        0.501960813999176,
        0.0,
        0.0,
        1.0
      ],
      "type": "VEC4"
    },
    {
      "bufferView": 1,
      "byteOffset": 12608,
      "componentType": 5126,
      "count": 767,
      "max": [
        0.0,
        0.0
      ],
      "min": [
        0.0,
        0.0
      ],
      "type": "VEC2"
    },
    {
      "bufferView": 0,
      "byteOffset": 36348,
      "componentType": 5125,
      "count": 4074,
      "type": "SCALAR"
    },
    {
      "bufferView": 2,
      "byteOffset": 56232,
      "componentType": 5126,
      "count": 520,
      "max": [
        -14.50251293182373,
        4.028594970703125,
        -11.983809471130371
      ],
      "min": [
        -15.100003242492676,
        3.809386968612671,
        -12.863798141479492
      ],
      "type": "VEC3"
    },
    {
      "bufferView": 2,
      "byteOffset": 62472,
      "componentType": 5126,
      "count": 520,
      "max": [
        0.9960271120071411,
        0.9955059885978699,
        0.8908640146255493
      ],
      "min": [
        -0.9956117868423462,
        -0.0807570070028305,
        -0.8929025530815125
      ],
      "type": "VEC3"
    },
    {
      "bufferView": 3,
      "byteOffset": 37488,
      "componentType": 5126,
      "count": 520,
      "max": [
        0.501960813999176,
        0.0,
        0.0,
        1.0
      ],
      "min": [
        0.501960813999176,
        0.0,
        0.0,
        1.0
      ],
      "type": "VEC4"
    },
    {
      "bufferView": 1,
      "byteOffset": 18744,
      "componentType": 5126,
      "count": 520,
      "max": [
        0.0,
        0.0
      ],
      "min": [
        0.0,
        0.0
      ],
      "type": "VEC2"
    },
    {
      "bufferView": 0,
      "byteOffset": 52644,
      "componentType": 5125,
      "count": 2664,
      "type": "SCALAR"
    },
    {
      "bufferView": 2,
      "byteOffset": 68712,
      "componentType": 5126,
      "count": 991,
      "max": [
        -20.635404586791992,
        1.7931230068206787,
        -11.39791202545166
      ],
      "min": [
        -21.24167823791504,
        1.5200929641723633,
        -12.669663429260254
      ],
      "type": "VEC3"
    },
    {
      "bufferView": 2,
      "byteOffset": 80604,
      "componentType": 5126,
      "count": 991,
      "max": [
        0.9990723729133606,
        0.9992021322250366,
        0.9975753426551819
      ],
      "min": [
        -0.999065101146698,
        -0.08069402724504471,
        -0.9973481297492981
      ],
      "type": "VEC3"
    },
    {
      "bufferView": 3,
      "byteOffset": 45808,
      "componentType": 5126,
      "count": 991,
      "max": [
        0.501960813999176,
        0.0,
        0.0,
        1.0
      ],
      "min": [
        0.501960813999176,
        0.0,
        0.0,
        1.0
      ],
      "type": "VEC4"
    },
    {
      "bufferView": 1,
      "byteOffset": 22904,
      "componentType": 5126,
      "count": 991,
      "max": [
        0.0,
        0.0
      ],
      "min": [
        0.0,
        0.0
      ],
      "type": "VEC2"
    },
    {
      "bufferView": 0,
      "byteOffset": 63300,
      "componentType": 5125,
      "count": 5553,
      "type": "SCALAR"
    },
    {
      "bufferView": 2,
      "byteOffset": 92496,
      "componentType": 5126,
      "count": 798,
      "max": [
        -13.796523094177246,
        4.156560897827148,
        -13.157423973083496
      ],
      "min": [
        -14.57933235168457,
        3.8743910789489746,
        -14.084284782409668
      ],
      "type": "VEC3"
    },
    {
      "bufferView": 2,
      "byteOffset": 102072,
      "componentType": 5126,
      "count": 798,
      "max": [
        0.9990910291671753,
        0.9998930096626282,
        0.9974023699760437
      ],
      "min": [
        -0.9982200264930725,
        -0.0807560384273529,
        -0.9973722100257874
      ],
      "type": "VEC3"
    },
    {
      "bufferView": 3,
      "byteOffset": 61664,
      "componentType": 5126,
      "count": 798,
      "max": [
        0.501960813999176,
        0.0,
        0.0,
        1.0
      ],
      "min": [
        0.501960813999176,
        0.0,
        0.0,
        1.0
      ],
      "type": "VEC4"
    },
    {
      "bufferView": 1,
      "byteOffset": 30832,
      "componentType": 5126,
      "count": 798,
      "max": [
        0.0,
        0.0
      ],
      "min": [
        0.0,
        0.0
      ],
      "type": "VEC2"
    },
    {
      "bufferView": 0,
      "byteOffset": 85512,
      "componentType": 5125,
      "count": 4131,
      "type": "SCALAR"
    },
    {
      "bufferView": 2,
      "byteOffset": 111648,
      "componentType": 5126,
      "count": 1458,
      "max": [
        -15.177919387817383,
        3.8581840991973877,
        -11.554718971252441
      ],
      "min": [
        -15.300366401672363,
        3.8041388988494873,
        -11.677695274353027
      ],
      "type": "VEC3"
    },
    {
      "bufferView": 2,
      "byteOffset": 129144,
      "componentType": 5126,
      "count": 1458,
      "max": [
        0.9990572333335876,
        0.9996345043182373,
        0.9976003766059875
      ],
      "min": [
        -0.9988952279090881,
        -0.08075302839279175,
        -0.9973636269569397
      ],
      "type": "VEC3"
    },
    {
      "bufferView": 3,
      "byteOffset": 74432,
      "componentType": 5126,
      "count": 1458,
      "max": [
        0.501960813999176,
        0.0,
        0.0,
        1.0
      ],
      "min": [
        0.501960813999176,
        0.0,
        0.0,
        1.0
      ],
      "type": "VEC4"
    },
    {
      "bufferView": 1,
      "byteOffset": 37216,
      "componentType": 5126,
      "count": 1458,
      "max": [
        0.0,
        0.0
      ],
      "min": [
        0.0,
        0.0
      ],
      "type": "VEC2"
    },
    {
      "bufferView": 0,
      "byteOffset": 102036,
      "componentType": 5125,
      "count": 8070,
      "type": "SCALAR"
    },
    {
      "bufferView": 2,
      "byteOffset": 146640,
      "componentType": 5126,
      "count": 6525,
      "max": [
        -4.8041911125183105,
        5.5956010818481445,
        -6.7923359870910645
      ],
      "min": [
        -25.323997497558594,
        -5.7309250831604,
        -28.266040802001953
      ],
      "type": "VEC3"
    },
    {
      "bufferView": 2,
      "byteOffset": 224940,
      "componentType": 5126,
      "count": 6525,
      "max": [
        0.999277651309967,
        0.9998661279678345,
        0.9987874627113342
      ],
      "min": [
        -0.9997917413711548,
        -0.9967337846755981,
        -0.9963030219078064
      ],
      "type": "VEC3"
    },
    {
      "bufferView": 3,
      "byteOffset": 97760,
      "componentType": 5126,
      "count": 6525,
      "max": [
        0.501960813999176,
        0.0,
        0.0,
        1.0
      ],
      "min": [
        0.501960813999176,
        0.0,
        0.0,
        1.0
      ],
      "type": "VEC4"
    },
    {
      "bufferView": 1,
      "byteOffset": 48880,
      "componentType": 5126,
      "count": 6525,
      "max": [
        0.0,
        0.0
      ],
      "min": [
        0.0,
        0.0
      ],
      "type": "VEC2"
    },
    {
      "bufferView": 0,
      "byteOffset": 134316,
      "componentType": 5125,
      "count": 33303,
      "type": "SCALAR"
    },
    {
      "bufferView": 2,
      "byteOffset": 303240,
      "componentType": 5126,
      "count": 9401,
      "max": [
        22.635173797607422,
        5.790217876434326,
        17.907201766967773
      ],
      "min": [
        -27.347291946411133,
        -7.38792085647583,
        -32.0452766418457
      ],
      "type": "VEC3"
    },
    {
      "bufferView": 2,
      "byteOffset": 416052,
      "componentType": 5126,
      "count": 9401,
      "max": [
        0.99950110912323,
        0.9999920129776001,
        0.9998786449432373
      ],
      "min": [
        -0.9996784925460815,
        -0.9999537467956543,
        -0.9990251064300537
      ],
      "type": "VEC3"
    },
    {
      "bufferView": 3,
      "byteOffset": 202160,
      "componentType": 5126,
      "count": 9401,
      "max": [
        0.9803921580314636,
        0.7529411911964417,
        1.0,
        1.0
      ],
      "min": [
        0.0,
        0.0,
        0.0,
        1.0
      ],
      "type": "VEC4"
    },
    {
      "bufferView": 1,
      "byteOffset": 101080,
      "componentType": 5126,
      "count": 9401,
      "max": [
        0.0,
        0.0
      ],
      "min": [
        0.0,
        0.0
      ],
      "type": "VEC2"
    },
    {
      "bufferView": 0,
      "byteOffset": 267528,
      "componentType": 5125,
      "count": 46206,
      "type": "SCALAR"
    }
  ],
  "asset": {
    "extras": {
      "author": "SorroW (https://sketchfab.com/CoppoB)",
      "license": "CC-BY-4.0 (http://creativecommons.org/licenses/by/4.0/)",
      "source": "https://sketchfab.com/3d-models/smiley-face-b5a4f8a97f9c403fa93c481a895cfb5b",
      "title": "Smiley Face"
    },
    "generator": "Sketchfab-14.60.0",
    "version": "2.0"
  },
  "bufferViews": [
    {
      "buffer": 0,
      "byteLength": 452352,
      "name": "floatBufferViews",
      "target": 34963
    },
    {
      "buffer": 0,
      "byteLength": 176288,
      "byteOffset": 452352,
      "byteStride": 8,
      "name": "floatBufferViews",
      "target": 34962
    },
    {
      "buffer": 0,
      "byteLength": 528864,
      "byteOffset": 628640,
      "byteStride": 12,
      "name": "floatBufferViews",
      "target": 34962
    },
    {
      "buffer": 0,
      "byteLength": 352576,
      "byteOffset": 1157504,
      "byteStride": 16,
      "name": "floatBufferViews",
      "target": 34962
    }
  ],
  "buffers": [
    {
      "byteLength": 1510080,
      "uri": "scene.bin"
    }
  ],
  "materials": [
    {
      "doubleSided": true,
      "name": "material_0",
      "pbrMetallicRoughness": {
        "baseColorFactor": [
          0.792157,
          0.819608,
          0.933333,
          1.0
        ],
        "metallicFactor": 0.0,
        "roughnessFactor": 0.16883361827175217
      }
    },
    {
      "doubleSided": true,
      "name": "material_1",
      "pbrMetallicRoughness": {
        "baseColorFactor": [
          0.792157,
          0.819608,
          0.933333,
          1.0
        ],
        "metallicFactor": 0.0,
        "roughnessFactor": 0.0
      }
    },
    {
      "doubleSided": true,
      "name": "material_2",
      "pbrMetallicRoughness": {
        "baseColorFactor": [
          0.792157,
          0.819608,
          0.933333,
          1.0
        ],
        "metallicFactor": 0.0,
        "roughnessFactor": 0.6
      }
    },
    {
      "doubleSided": true,
      "name": "material_3",
      "pbrMetallicRoughness": {
        "baseColorFactor": [
          0.792157,
          0.819608,
          0.933333,
          1.0
        ],
        "metallicFactor": 0.0,
        "roughnessFactor": 0.6
      }
    },
    {
      "doubleSided": true,
      "name": "material_4",
      "pbrMetallicRoughness": {
        "baseColorFactor": [
          0.792157,
          0.819608,
          0.933333,
          1.0
        ],
        "metallicFactor": 0.0,
        "roughnessFactor": 0.6
      }
    },
    {
      "doubleSided": true,
      "name": "material_5",
      "pbrMetallicRoughness": {
        "baseColorFactor": [
          0.792157,
          0.819608,
          0.933333,
          1.0
        ],
        "metallicFactor": 0.0,
        "roughnessFactor": 0.6
      }
    },
    {
      "doubleSided": true,
      "name": "material_6",
      "pbrMetallicRoughness": {
        "baseColorFactor": [
          0.792157,
          0.819608,
          0.933333,
          1.0
        ],
        "metallicFactor": 0.0,
        "roughnessFactor": 0.6
      }
    },
    {
      "doubleSided": true,
      "name": "material_7",
      "pbrMetallicRoughness": {
        "baseColorFactor": [
          0.792157,
          0.819608,
          0.933333,
          1.0
        ],
        "metallicFactor": 0.0,
        "roughnessFactor": 0.6
      }
    }
  ],
  "meshes": [
    {
      "name": "Object_0",
      "primitives": [
        {
          "attributes": {
            "COLOR_0": 2,
            "NORMAL": 1,
            "POSITION": 0,
            "TEXCOORD_0": 3
          },
          "indices": 4,
          "material": 7,
          "mode": 4
        }
      ]
    },
    {
      "name": "Object_1",
      "primitives": [
        {
          "attributes": {
            "COLOR_0": 7,
            "NORMAL": 6,
            "POSITION": 5,
            "TEXCOORD_0": 8
          },
          "indices": 9,
          "material": 6,
          "mode": 4
        }
      ]
    },
    {
      "name": "Object_2",
      "primitives": [
        {
          "attributes": {
            "COLOR_0": 12,
            "NORMAL": 11,
            "POSITION": 10,
            "TEXCOORD_0": 13
          },
          "indices": 14,
          "material": 5,
          "mode": 4
        }
      ]
    },
    {
      "name": "Object_3",
      "primitives": [
        {
          "attributes": {
            "COLOR_0": 17,
            "NORMAL": 16,
            "POSITION": 15,
            "TEXCOORD_0": 18
          },
          "indices": 19,
          "material": 4,
          "mode": 4
        }
      ]
    },
    {
      "name": "Object_4",
      "primitives": [
        {
          "attributes": {
            "COLOR_0": 22,
            "NORMAL": 21,
            "POSITION": 20,
            "TEXCOORD_0": 23
          },
          "indices": 24,
          "material": 3,
          "mode": 4
        }
      ]
    },
    {
      "name": "Object_5",
      "primitives": [
        {
          "attributes": {
            "COLOR_0": 27,
            "NORMAL": 26,
            "POSITION": 25,
            "TEXCOORD_0": 28
          },
          "indices": 29,
          "material": 2,
          "mode": 4
        }
      ]
    },
    {
      "name": "Object_6",
      "primitives": [
        {
          "attributes": {
            "COLOR_0": 32,
            "NORMAL": 31,
            "POSITION": 30,
            "TEXCOORD_0": 33
          },
          "indices": 34,
          "material": 1,
          "mode": 4
        }
      ]
    },
    {
      "name": "Object_7",
      "primitives": [
        {
          "attributes": {
            "COLOR_0": 37,
            "NORMAL": 36,
            "POSITION": 35,
            "TEXCOORD_0": 38
          },
          "indices": 39,
          "material": 0,
          "mode": 4
        }
      ]
    }
  ],
  "nodes": [
    {
      "children": [
        1
      ],
      "matrix": [
        1.0,
        0.0,
        0.0,
        0.0,
        0.0,
        2.220446049250313e-16,
        -1.0,
        0.0,
        0.0,
        1.0,
        2.220446049250313e-16,
        0.0,
        0.0,
        0.0,
        0.0,
        1.0
      ],
      "name": "Sketchfab_model"
    },
    {
      "children": [
        2,
        3,
        4,
        5,
        6,
        7,
        8,
        9
      ],
      "matrix": [
        1.0,
        0.0,
        0.0,
        0.0,
        0.0,
        0.0,
        1.0,
        0.0,
        0.0,
        -1.0,
        0.0,
        0.0,
        0.0,
        0.0,
        0.0,
        1.0
      ],
      "name": "currentmodel.wrl.cleaner.materialmerger.gles"
    },
    {
      "mesh": 0,
      "name": "Object_2"
    },
    {
      "mesh": 1,
      "name": "Object_3"
    },
    {
      "mesh": 2,
      "name": "Object_4"
    },
    {
      "mesh": 3,
      "name": "Object_5"
    },
    {
      "mesh": 4,
      "name": "Object_6"
    },
    {
      "mesh": 5,
      "name": "Object_7"
    },
    {
      "mesh": 6,
      "name": "Object_8"
    },
    {
      "mesh": 7,
      "name": "Object_9"
    }
  ],
  "scene": 0,
  "scenes": [
    {
      "name": "Sketchfab_Scene",
      "nodes": [
        0
      ]
    }
  ]
}
